<svg width="99" height="24" viewBox="0 0 99 24" fill="none" xmlns="http://www.w3.org/2000/svg">
<path fill-rule="evenodd" clip-rule="evenodd" d="M8.62428 5.71762H15.3856C19.0165 5.71762 20.378 7.55633 20.1686 10.2562C19.8194 14.7133 17.1312 17.1804 13.5469 17.1804H11.7431C11.2543 17.1804 10.9285 17.5063 10.7888 18.3442L10.0208 23.453C10.019 23.5878 9.96856 23.7174 9.87873 23.8179C9.7889 23.9185 9.66572 23.9832 9.53196 24H5.29601C4.8887 24 4.74905 23.6974 4.85378 23.0341L7.4489 6.63699C7.46157 6.49777 7.50262 6.36259 7.5695 6.23983C7.63639 6.11707 7.72774 6.00931 7.83785 5.92318C7.94797 5.83705 8.07451 5.77439 8.20976 5.73904C8.34501 5.70369 8.48611 5.6964 8.62428 5.71762Z" fill="#009DE2"/>
<path fill-rule="evenodd" clip-rule="evenodd" d="M37.9853 5.35693C40.3128 5.35693 42.3726 6.59049 42.0817 9.6744C41.7326 13.3285 39.7542 15.3767 36.6703 15.3767H33.9588C33.5748 15.3767 33.3886 15.6909 33.2838 16.3543L32.7601 19.6826C32.6787 20.183 32.4227 20.4274 32.0386 20.4274H29.525C29.1177 20.4274 28.978 20.1713 29.0711 19.6011L31.1542 6.253C31.2589 5.60131 31.5033 5.35693 31.9455 5.35693H37.9853ZM33.8774 12.5023H35.9256C37.2173 12.4441 38.0668 11.5597 38.1483 9.95372C38.1717 9.72736 38.1446 9.49858 38.0689 9.28398C37.9931 9.06939 37.8707 8.87431 37.7103 8.71284C37.5499 8.55137 37.3557 8.42754 37.1416 8.35031C36.9276 8.27308 36.699 8.24438 36.4725 8.26628H34.5407L33.8774 12.4907V12.5023ZM48.9245 19.4033C49.1572 19.1938 49.39 19.0891 49.3551 19.4033L49.2736 20.02C49.2736 20.3459 49.3667 20.5204 49.6577 20.5204H51.9037C52.2761 20.5204 52.4623 20.3692 52.5554 19.7873L53.9286 11.1291C53.9984 10.6868 53.9286 10.4774 53.5678 10.4774H51.1007C50.8796 10.4774 50.7748 10.6054 50.7166 10.9429L50.6236 11.4782C50.6236 11.7575 50.449 11.8041 50.3326 11.4782C49.9137 10.489 48.8546 10.0468 47.3534 10.0701C45.7619 10.1058 44.2459 10.7556 43.1224 11.8834C41.9988 13.0113 41.3549 14.5299 41.3252 16.1215C41.2582 16.705 41.3148 17.296 41.4916 17.856C41.6683 18.4161 41.9612 18.9326 42.351 19.3719C42.7409 19.8111 43.219 20.1633 43.7541 20.4053C44.2892 20.6473 44.8693 20.7738 45.4566 20.7765C46.1017 20.8196 46.7485 20.7211 47.3516 20.488C47.9546 20.2548 48.4995 19.8925 48.9478 19.4266L48.9245 19.4033ZM47.0974 18.0766C46.7599 18.092 46.4232 18.0315 46.1122 17.8995C45.8011 17.7675 45.5237 17.5673 45.3003 17.3138C45.0769 17.0603 44.9133 16.7598 44.8215 16.4346C44.7297 16.1094 44.7121 15.7678 44.7699 15.4349C44.9039 14.707 45.2851 14.0477 45.8492 13.5684C46.4132 13.0892 47.1254 12.8195 47.8655 12.8049C48.2024 12.7876 48.539 12.8464 48.8501 12.9771C49.1612 13.1077 49.4389 13.3068 49.6625 13.5595C49.8861 13.8122 50.05 14.112 50.1418 14.4366C50.2336 14.7613 50.2511 15.1025 50.1929 15.4349C50.0593 16.164 49.6786 16.8248 49.1147 17.306C48.5509 17.7872 47.8385 18.0593 47.0974 18.0766ZM58.3624 10.3959H56.0582C55.5811 10.3959 55.3949 10.7334 55.5462 11.1756L58.3624 19.4266L55.581 23.3484C55.3483 23.6742 55.5811 23.9768 55.8604 23.9768H58.4089C58.5574 23.9937 58.7077 23.9676 58.8418 23.9016C58.976 23.8356 59.0883 23.7324 59.1654 23.6044L67.8353 11.1756C68.1029 10.7916 67.9749 10.3843 67.5327 10.3843H65.1237C64.7048 10.3843 64.5418 10.5472 64.3091 10.8963L60.6899 16.1332L59.0839 10.8847C58.9908 10.5588 58.7348 10.3726 58.3159 10.3726L58.3624 10.3959Z" fill="#113984"/>
<path fill-rule="evenodd" clip-rule="evenodd" d="M76.8547 5.35693C79.1822 5.35693 81.2421 6.59049 80.9511 9.6744C80.602 13.3285 78.6236 15.3767 75.5397 15.3767H72.8282C72.4442 15.3767 72.258 15.6909 72.1533 16.3543L71.6296 19.6826C71.5481 20.183 71.2921 20.4274 70.9081 20.4274H68.3943C67.987 20.4274 67.8474 20.1713 67.9405 19.6011L70.0236 6.253C70.1283 5.60131 70.3727 5.35693 70.8266 5.35693H76.8547ZM72.7002 12.5023H74.7484C76.0401 12.4441 76.8896 11.5597 76.9711 9.95372C76.9946 9.72736 76.9674 9.49858 76.8917 9.28398C76.8159 9.06939 76.6935 8.87431 76.5331 8.71284C76.3728 8.55137 76.1785 8.42754 75.9645 8.35031C75.7504 8.27308 75.5218 8.24438 75.2953 8.26628H73.3635L72.7002 12.4907V12.5023ZM87.8288 19.4033C88.0615 19.1938 88.2943 19.0891 88.2594 19.4033L88.1779 20.02C88.1779 20.3459 88.271 20.5204 88.562 20.5204H90.808C91.1804 20.5204 91.3666 20.3692 91.4597 19.7873L92.8329 11.1291C92.9027 10.6868 92.8329 10.4774 92.4721 10.4774H90.005C89.7839 10.4774 89.6791 10.6054 89.6209 10.9429L89.5279 11.4782C89.5279 11.7575 89.3533 11.8041 89.2369 11.4782C88.818 10.489 87.759 10.0468 86.2578 10.0701C84.6662 10.1058 83.1502 10.7556 82.0267 11.8834C80.9031 13.0113 80.2592 14.5299 80.2295 16.1215C80.1625 16.705 80.2192 17.296 80.396 17.856C80.5727 18.4161 80.8655 18.9326 81.2553 19.3719C81.6452 19.8111 82.1233 20.1633 82.6584 20.4053C83.1935 20.6473 83.7736 20.7738 84.3609 20.7765C85.006 20.8196 85.6528 20.7211 86.2559 20.488C86.859 20.2548 87.4038 19.8925 87.8521 19.4266L87.8288 19.4033ZM85.9552 18.0766C85.6177 18.092 85.2809 18.0315 84.9699 17.8995C84.6589 17.7675 84.3815 17.5673 84.1581 17.3138C83.9347 17.0603 83.7711 16.7598 83.6793 16.4346C83.5875 16.1094 83.5699 15.7678 83.6277 15.4349C83.7617 14.707 84.1429 14.0477 84.7069 13.5684C85.271 13.0892 85.9832 12.8195 86.7232 12.8049C87.0602 12.7876 87.3968 12.8464 87.7079 12.9771C88.019 13.1077 88.2966 13.3068 88.5203 13.5595C88.7439 13.8122 88.9077 14.112 88.9995 14.4366C89.0913 14.7613 89.1088 15.1025 89.0507 15.4349C88.9171 16.164 88.5363 16.8248 87.9725 17.306C87.4086 17.7872 86.6962 18.0593 85.9552 18.0766ZM96.2776 20.4739H93.6475C93.6014 20.4765 93.5553 20.4686 93.5128 20.4507C93.4702 20.4328 93.4323 20.4054 93.4019 20.3705C93.3716 20.3357 93.3496 20.2944 93.3377 20.2498C93.3258 20.2052 93.3243 20.1584 93.3333 20.1131L95.6607 5.74095C95.6816 5.64121 95.7354 5.5514 95.8135 5.48596C95.8916 5.42052 95.9895 5.38326 96.0913 5.3802H98.6749C98.721 5.37754 98.767 5.38547 98.8096 5.40339C98.8522 5.4213 98.8901 5.44872 98.9204 5.48354C98.9507 5.51836 98.9727 5.55967 98.9846 5.60429C98.9965 5.64891 98.998 5.69565 98.9891 5.74095L96.7198 20.1131C96.6975 20.2209 96.6368 20.3169 96.549 20.3833C96.4613 20.4496 96.3524 20.4818 96.2426 20.4739H96.2776Z" fill="#009DE2"/>
<path fill-rule="evenodd" clip-rule="evenodd" d="M4.38853 0.0153013H11.1615C13.07 0.0153013 15.3277 0.01528 16.8406 1.41177C17.3599 1.89467 17.7588 2.49255 18.0054 3.15745C18.2519 3.82234 18.3392 4.53575 18.2603 5.24048C17.853 10.4191 14.7691 13.3052 10.6146 13.3052H7.27465C6.70442 13.3052 6.32037 13.6892 6.16909 14.7017L5.23811 20.6368C5.16828 21.0208 5.00534 21.2419 4.70276 21.2768H0.548207C0.0827112 21.2768 -0.0802151 20.916 0.0361588 20.1131L3.03863 1.09757C3.0479 0.934678 3.0913 0.775542 3.16605 0.630519C3.24081 0.485496 3.34524 0.357827 3.47254 0.25577C3.59984 0.153713 3.74716 0.0795658 3.90497 0.0381371C4.06277 -0.00329157 4.22752 -0.0110676 4.38853 0.0153013Z" fill="#113984"/>
<path fill-rule="evenodd" clip-rule="evenodd" d="M6.26189 14.1082L7.42563 6.62534C7.43236 6.4832 7.46866 6.34404 7.53217 6.21671C7.59568 6.08937 7.68506 5.97666 7.79455 5.88578C7.90404 5.79491 8.03124 5.72783 8.16809 5.68886C8.30495 5.64989 8.44842 5.63989 8.58936 5.65945H15.3507C16.2863 5.63132 17.2176 5.79774 18.0855 6.1482C17.3989 10.8032 14.4314 13.3052 10.5329 13.3052H7.19293C6.78563 13.3052 6.45972 13.5379 6.26189 14.1082Z" fill="#172C70"/>
</svg>
