<svg width="1372" height="304" viewBox="0 0 1372 304" fill="none" xmlns="http://www.w3.org/2000/svg">
<rect width="1372" height="304" rx="24" fill="#F2653B"/>
<g opacity="0.16">
<path d="M272 72.5616V72.5616C302.517 54.7602 340.252 54.7602 370.769 72.5616V72.5616V72.5616C401.286 90.363 439.022 90.3631 469.538 72.5616V72.5616" stroke="white" stroke-width="2.46923" stroke-linecap="round" stroke-linejoin="round"/>
<path d="M272 62.6846V62.6846C302.517 44.8832 340.252 44.8832 370.769 62.6846V62.6846V62.6846C401.286 80.4861 439.022 80.4861 469.538 62.6846V62.6846" stroke="white" stroke-width="2.46923" stroke-linecap="round" stroke-linejoin="round"/>
<path d="M272 52.8077V52.8077C302.517 35.0062 340.252 35.0062 370.769 52.8077V52.8077V52.8077C401.286 70.6091 439.022 70.6091 469.538 52.8077V52.8077" stroke="white" stroke-width="2.46923" stroke-linecap="round" stroke-linejoin="round"/>
<path d="M272 82.4386V82.4386C302.517 64.6371 340.252 64.6371 370.769 82.4386V82.4386V82.4386C401.286 100.24 439.022 100.24 469.538 82.4386V82.4386" stroke="white" stroke-width="2.46923" stroke-linecap="round" stroke-linejoin="round"/>
<path d="M272 92.3155V92.3155C302.517 74.5141 340.252 74.5141 370.769 92.3155V92.3155V92.3155C401.286 110.117 439.022 110.117 469.538 92.3155V92.3155" stroke="white" stroke-width="2.46923" stroke-linecap="round" stroke-linejoin="round"/>
<path d="M272 102.192V102.192C302.517 84.3908 340.252 84.3908 370.769 102.192V102.192V102.192C401.286 119.994 439.022 119.994 469.538 102.192V102.192" stroke="white" stroke-width="2.46923" stroke-linecap="round" stroke-linejoin="round"/>
</g>
<g opacity="0.16">
<path d="M1341.29 65.6092V65.6092C1323.76 96.2841 1291.08 115.152 1255.76 114.994V114.994V114.994C1220.43 114.836 1187.75 133.704 1170.22 164.378V164.378" stroke="white" stroke-width="2.46923" stroke-linecap="round" stroke-linejoin="round"/>
<path d="M1346.23 74.1629V74.1629C1328.7 104.838 1296.02 123.706 1260.69 123.548V123.548V123.548C1225.37 123.389 1192.69 142.257 1175.16 172.932V172.932" stroke="white" stroke-width="2.46923" stroke-linecap="round" stroke-linejoin="round"/>
<path d="M1351.17 82.7166V82.7166C1333.64 113.391 1300.96 132.259 1265.63 132.101V132.101V132.101C1230.3 131.943 1197.62 150.811 1180.1 181.486V181.486" stroke="white" stroke-width="2.46923" stroke-linecap="round" stroke-linejoin="round"/>
<path d="M1336.35 57.0557V57.0557C1318.83 87.7306 1286.15 106.598 1250.82 106.44V106.44V106.44C1215.49 106.282 1182.81 125.15 1165.28 155.825V155.825" stroke="white" stroke-width="2.46923" stroke-linecap="round" stroke-linejoin="round"/>
<path d="M1331.42 48.502V48.502C1313.89 79.1769 1281.21 98.0447 1245.88 97.8866V97.8866V97.8866C1210.55 97.7285 1177.87 116.596 1160.34 147.271V147.271" stroke="white" stroke-width="2.46923" stroke-linecap="round" stroke-linejoin="round"/>
<path d="M1326.48 39.9483V39.9483C1308.95 70.6232 1276.27 89.491 1240.94 89.3329V89.3329V89.3329C1205.61 89.1748 1172.93 108.043 1155.4 138.718V138.718" stroke="white" stroke-width="2.46923" stroke-linecap="round" stroke-linejoin="round"/>
</g>
</svg>
