<svg width="118" height="15" viewBox="0 0 118 15" fill="none" xmlns="http://www.w3.org/2000/svg">
<path d="M4.392 14L0.306 1.292H3.114L6.102 11.066H5.004L7.92 1.292H10.134L13.05 11.066H11.97L14.94 1.292H17.73L13.644 14H11.43L8.496 4.226H9.54L6.606 14H4.392ZM19.1872 14V5.252H21.9412V14H19.1872ZM20.5732 4.046C20.1412 4.046 19.7812 3.902 19.4932 3.614C19.2172 3.314 19.0792 2.954 19.0792 2.534C19.0792 2.102 19.2172 1.742 19.4932 1.454C19.7812 1.166 20.1412 1.022 20.5732 1.022C21.0052 1.022 21.3592 1.166 21.6352 1.454C21.9112 1.742 22.0492 2.102 22.0492 2.534C22.0492 2.954 21.9112 3.314 21.6352 3.614C21.3592 3.902 21.0052 4.046 20.5732 4.046ZM24.0605 14V5.252H26.8145V14H24.0605ZM26.8145 9.194L25.6625 8.294C25.8905 7.274 26.2745 6.482 26.8145 5.918C27.3545 5.354 28.1045 5.072 29.0645 5.072C29.4845 5.072 29.8505 5.138 30.1625 5.27C30.4865 5.39 30.7685 5.582 31.0085 5.846L29.3705 7.916C29.2505 7.784 29.1005 7.682 28.9205 7.61C28.7405 7.538 28.5365 7.502 28.3085 7.502C27.8525 7.502 27.4865 7.646 27.2105 7.934C26.9465 8.21 26.8145 8.63 26.8145 9.194ZM35.9961 14.198C35.0481 14.198 34.2021 14.006 33.4581 13.622C32.7261 13.226 32.1501 12.68 31.7301 11.984C31.3101 11.288 31.1001 10.502 31.1001 9.626C31.1001 8.75 31.3041 7.97 31.7121 7.286C32.1321 6.59 32.6961 6.044 33.4041 5.648C34.1121 5.252 34.9101 5.054 35.7981 5.054C36.6621 5.054 37.4241 5.24 38.0841 5.612C38.7441 5.984 39.2601 6.5 39.6321 7.16C40.0161 7.82 40.2081 8.576 40.2081 9.428C40.2081 9.584 40.1961 9.752 40.1721 9.932C40.1601 10.1 40.1301 10.298 40.0821 10.526L32.5401 10.544V8.654L38.9121 8.636L37.7241 9.428C37.7121 8.924 37.6341 8.51 37.4901 8.186C37.3461 7.85 37.1301 7.598 36.8421 7.43C36.5661 7.25 36.2241 7.16 35.8161 7.16C35.3841 7.16 35.0061 7.262 34.6821 7.466C34.3701 7.658 34.1241 7.934 33.9441 8.294C33.7761 8.654 33.6921 9.092 33.6921 9.608C33.6921 10.124 33.7821 10.568 33.9621 10.94C34.1541 11.3 34.4181 11.582 34.7541 11.786C35.1021 11.978 35.5101 12.074 35.9781 12.074C36.4101 12.074 36.8001 12.002 37.1481 11.858C37.4961 11.702 37.8021 11.474 38.0661 11.174L39.5781 12.686C39.1461 13.19 38.6241 13.568 38.0121 13.82C37.4001 14.072 36.7281 14.198 35.9961 14.198ZM48.4099 14V1.472H51.2359V14H48.4099ZM44.4319 3.758V1.292H55.2139V3.758H44.4319ZM54.9797 14V5.252H57.7337V14H54.9797ZM57.7337 9.194L56.5817 8.294C56.8097 7.274 57.1937 6.482 57.7337 5.918C58.2737 5.354 59.0237 5.072 59.9837 5.072C60.4037 5.072 60.7697 5.138 61.0817 5.27C61.4057 5.39 61.6877 5.582 61.9277 5.846L60.2897 7.916C60.1697 7.784 60.0197 7.682 59.8397 7.61C59.6597 7.538 59.4557 7.502 59.2277 7.502C58.7717 7.502 58.4057 7.646 58.1297 7.934C57.8657 8.21 57.7337 8.63 57.7337 9.194ZM66.2493 14.18C65.4453 14.18 64.7253 13.982 64.0893 13.586C63.4653 13.19 62.9673 12.65 62.5953 11.966C62.2353 11.282 62.0553 10.502 62.0553 9.626C62.0553 8.75 62.2353 7.97 62.5953 7.286C62.9673 6.602 63.4653 6.062 64.0893 5.666C64.7253 5.27 65.4453 5.072 66.2493 5.072C66.8373 5.072 67.3653 5.186 67.8333 5.414C68.3133 5.642 68.7033 5.96 69.0033 6.368C69.3033 6.764 69.4713 7.22 69.5073 7.736V11.516C69.4713 12.032 69.3033 12.494 69.0033 12.902C68.7153 13.298 68.3313 13.61 67.8513 13.838C67.3713 14.066 66.8373 14.18 66.2493 14.18ZM66.8073 11.696C67.3953 11.696 67.8693 11.504 68.2293 11.12C68.5893 10.724 68.7693 10.226 68.7693 9.626C68.7693 9.218 68.6853 8.858 68.5173 8.546C68.3613 8.234 68.1333 7.994 67.8333 7.826C67.5453 7.646 67.2093 7.556 66.8253 7.556C66.4413 7.556 66.0993 7.646 65.7993 7.826C65.5113 7.994 65.2773 8.234 65.0973 8.546C64.9293 8.858 64.8453 9.218 64.8453 9.626C64.8453 10.022 64.9293 10.376 65.0973 10.688C65.2653 11 65.4993 11.246 65.7993 11.426C66.0993 11.606 66.4353 11.696 66.8073 11.696ZM68.6613 14V11.642L69.0753 9.518L68.6613 7.394V5.252H71.3613V14H68.6613ZM79.2584 14V9.014C79.2584 8.558 79.1144 8.192 78.8264 7.916C78.5504 7.628 78.1964 7.484 77.7644 7.484C77.4644 7.484 77.2004 7.55 76.9724 7.682C76.7444 7.802 76.5644 7.982 76.4324 8.222C76.3004 8.45 76.2344 8.714 76.2344 9.014L75.1724 8.492C75.1724 7.808 75.3224 7.208 75.6224 6.692C75.9224 6.176 76.3364 5.78 76.8644 5.504C77.4044 5.216 78.0104 5.072 78.6824 5.072C79.3304 5.072 79.9004 5.228 80.3924 5.54C80.8964 5.84 81.2924 6.242 81.5804 6.746C81.8684 7.25 82.0124 7.802 82.0124 8.402V14H79.2584ZM73.4804 14V5.252H76.2344V14H73.4804ZM87.1471 14.216C86.6311 14.216 86.1211 14.15 85.6171 14.018C85.1251 13.886 84.6631 13.7 84.2311 13.46C83.8111 13.208 83.4511 12.92 83.1511 12.596L84.7171 11.012C85.0051 11.324 85.3471 11.57 85.7431 11.75C86.1391 11.918 86.5711 12.002 87.0391 12.002C87.3631 12.002 87.6091 11.954 87.7771 11.858C87.9571 11.762 88.0471 11.63 88.0471 11.462C88.0471 11.246 87.9391 11.084 87.7231 10.976C87.5191 10.856 87.2551 10.754 86.9311 10.67C86.6071 10.574 86.2651 10.472 85.9051 10.364C85.5451 10.256 85.2031 10.106 84.8791 9.914C84.5551 9.722 84.2911 9.458 84.0871 9.122C83.8831 8.774 83.7811 8.336 83.7811 7.808C83.7811 7.244 83.9251 6.758 84.2131 6.35C84.5011 5.93 84.9091 5.6 85.4371 5.36C85.9651 5.12 86.5831 5 87.2911 5C88.0351 5 88.7191 5.132 89.3431 5.396C89.9791 5.648 90.4951 6.026 90.8911 6.53L89.3251 8.114C89.0491 7.79 88.7371 7.562 88.3891 7.43C88.0531 7.298 87.7231 7.232 87.3991 7.232C87.0871 7.232 86.8531 7.28 86.6971 7.376C86.5411 7.46 86.4631 7.586 86.4631 7.754C86.4631 7.934 86.5651 8.078 86.7691 8.186C86.9731 8.294 87.2371 8.39 87.5611 8.474C87.8851 8.558 88.2271 8.66 88.5871 8.78C88.9471 8.9 89.2891 9.062 89.6131 9.266C89.9371 9.47 90.2011 9.746 90.4051 10.094C90.6091 10.43 90.7111 10.874 90.7111 11.426C90.7111 12.278 90.3871 12.956 89.7391 13.46C89.1031 13.964 88.2391 14.216 87.1471 14.216ZM93.5013 14V4.496C93.5013 3.788 93.6573 3.152 93.9693 2.588C94.2933 2.012 94.7433 1.562 95.3193 1.238C95.8953 0.901999 96.5793 0.733999 97.3713 0.733999C97.9713 0.733999 98.4933 0.835999 98.9373 1.04C99.3933 1.232 99.7893 1.502 100.125 1.85L98.3973 3.578C98.2773 3.458 98.1393 3.368 97.9833 3.308C97.8393 3.236 97.6653 3.2 97.4613 3.2C97.0893 3.2 96.7953 3.308 96.5793 3.524C96.3633 3.74 96.2553 4.034 96.2553 4.406V14H93.5013ZM91.5753 7.592V5.252H98.7753V7.592H91.5753ZM104.338 14.198C103.39 14.198 102.544 14.006 101.8 13.622C101.068 13.226 100.492 12.68 100.072 11.984C99.6524 11.288 99.4424 10.502 99.4424 9.626C99.4424 8.75 99.6464 7.97 100.054 7.286C100.474 6.59 101.038 6.044 101.746 5.648C102.454 5.252 103.252 5.054 104.14 5.054C105.004 5.054 105.766 5.24 106.426 5.612C107.086 5.984 107.602 6.5 107.974 7.16C108.358 7.82 108.55 8.576 108.55 9.428C108.55 9.584 108.538 9.752 108.514 9.932C108.502 10.1 108.472 10.298 108.424 10.526L100.882 10.544V8.654L107.254 8.636L106.066 9.428C106.054 8.924 105.976 8.51 105.832 8.186C105.688 7.85 105.472 7.598 105.184 7.43C104.908 7.25 104.566 7.16 104.158 7.16C103.726 7.16 103.348 7.262 103.024 7.466C102.712 7.658 102.466 7.934 102.286 8.294C102.118 8.654 102.034 9.092 102.034 9.608C102.034 10.124 102.124 10.568 102.304 10.94C102.496 11.3 102.76 11.582 103.096 11.786C103.444 11.978 103.852 12.074 104.32 12.074C104.752 12.074 105.142 12.002 105.49 11.858C105.838 11.702 106.144 11.474 106.408 11.174L107.92 12.686C107.488 13.19 106.966 13.568 106.354 13.82C105.742 14.072 105.07 14.198 104.338 14.198ZM110.06 14V5.252H112.814V14H110.06ZM112.814 9.194L111.662 8.294C111.89 7.274 112.274 6.482 112.814 5.918C113.354 5.354 114.104 5.072 115.064 5.072C115.484 5.072 115.85 5.138 116.162 5.27C116.486 5.39 116.768 5.582 117.008 5.846L115.37 7.916C115.25 7.784 115.1 7.682 114.92 7.61C114.74 7.538 114.536 7.502 114.308 7.502C113.852 7.502 113.486 7.646 113.21 7.934C112.946 8.21 112.814 8.63 112.814 9.194Z" fill="#2E4369"/>
</svg>
