<svg width="106" height="24" viewBox="0 0 106 24" fill="none" xmlns="http://www.w3.org/2000/svg">
<path d="M105.944 10.4834C106.016 9.10349 105.8 7.72371 105.31 6.43173C104.82 5.13975 104.066 3.96378 103.097 2.97852C102.129 1.99327 100.965 1.22025 99.6819 0.708545C98.3983 0.196845 97.0223 -0.0423558 95.6413 0.00614024C87.992 0.00614024 82.8593 5.56249 82.8593 13.4983C82.7844 14.8913 83.0027 16.2845 83.5002 17.5877C83.9977 18.891 84.7632 20.0753 85.7473 21.0641C86.7313 22.0528 87.912 22.824 89.2129 23.3277C90.5138 23.8314 91.9059 24.0563 93.2992 23.9881C98.868 23.9881 103.004 21.2971 104.711 17.0115H98.4818C97.9462 17.7414 97.2348 18.324 96.4136 18.7052C95.5925 19.0863 94.6883 19.2537 93.7851 19.1917C93.073 19.2272 92.3611 19.1174 91.6927 18.8691C91.0244 18.6209 90.4135 18.2393 89.8973 17.7475C89.3811 17.2557 88.9702 16.6641 88.6898 16.0086C88.4094 15.3531 88.2652 14.6473 88.2661 13.9344H105.546C105.794 12.8004 105.928 11.6442 105.944 10.4834ZM88.7893 9.77332C89.1429 8.2931 89.9942 6.97929 91.2008 6.05173C92.4073 5.12417 93.8957 4.63916 95.4171 4.67794C96.084 4.6673 96.7461 4.79267 97.3629 5.04642C97.9797 5.30017 98.5383 5.67697 99.0047 6.15381C99.471 6.63065 99.8353 7.19754 100.075 7.81985C100.315 8.44216 100.426 9.10683 100.4 9.77332H88.7893Z" fill="#2E4369"/>
<path d="M66.2651 23.4275L67.3738 17.5223C70.7499 18.2075 71.2732 16.2765 72.1453 11.6919L72.5814 9.4245C73.8272 2.9961 76.3188 -0.205643 83.395 0.703801L82.2862 6.60898C78.8976 5.92379 78.2996 8.49015 77.5521 12.4768L77.1161 14.7566C75.8827 21.2224 73.3164 24.312 66.2651 23.4275Z" fill="#2E4369"/>
<path d="M57.9804 23.4523L62.1663 0.55426H67.6854L63.5244 23.4523H57.9804Z" fill="#2E4369"/>
<path d="M26.3616 0.55426H31.7187L33.4629 17.1111L40.4768 0.55426H45.7963L47.665 17.2731L54.4299 0.55426H59.762L50.057 23.4523H43.9899L42.0216 7.69279L35.3066 23.4523H29.4388L26.3616 0.55426Z" fill="#2E4369"/>
<path d="M6.36624 6.63384L0 12.7009H10.8137L11.935 10.0598H6.46585L9.89184 6.63384L7.89857 3.20785H17.1923L8.62109 23.4523H11.8352L21.5402 0.55426H2.79076L6.36624 6.63384Z" fill="#00B9FF"/>
</svg>
