<svg width="24" height="24" viewBox="0 0 24 24" fill="none" xmlns="http://www.w3.org/2000/svg">
<rect width="24" height="24" rx="12" fill="#262362" fill-opacity="0.2"/>
<path d="M18.6666 14L16.6666 11.3334L14.6666 14H15.9373C15.6466 15.646 14.3119 16.9807 12.6666 17.2707V12.6667H13.9999V11.3334H12.6666V10.224C13.6953 9.91804 14.4759 8.94204 14.4759 7.81004C14.4759 6.44404 13.3653 5.33337 11.9999 5.33337C10.6346 5.33337 9.52392 6.44404 9.52392 7.81004C9.52392 8.94204 10.3046 9.91804 11.3333 10.224V11.3334H9.99992V12.6667H11.3333V17.2707C9.68725 16.9807 8.35259 15.646 8.06259 14H9.33325L7.33325 11.3334L5.33325 14H6.71525C7.05592 16.59 9.33459 18.6667 11.9999 18.6667C14.6653 18.6667 16.9439 16.59 17.2846 14H18.6666ZM10.8573 7.81004C10.8573 7.18004 11.3699 6.66671 11.9999 6.66671C12.6299 6.66671 13.1426 7.18004 13.1426 7.81004C13.1426 8.44404 12.6086 9.00004 11.9999 9.00004C11.3913 9.00004 10.8573 8.44404 10.8573 7.81004Z" fill="#262362"/>
</svg>
