<svg width="9" height="9" viewBox="0 0 9 9" fill="none" xmlns="http://www.w3.org/2000/svg">
<path d="M8.54249 1.15184C8.54249 1.04926 8.45856 0.965332 8.35598 0.965332L6.81732 0.972326L4.5 3.73492L2.18502 0.974658L0.644024 0.967663C0.541447 0.967663 0.45752 1.04926 0.45752 1.15417C0.45752 1.19846 0.473839 1.24043 0.501814 1.2754L3.53484 4.88892L0.501814 8.50011C0.473644 8.53428 0.458013 8.57706 0.45752 8.62134C0.45752 8.72392 0.541447 8.80784 0.644024 8.80784L2.18502 8.80085L4.5 6.03825L6.81499 8.79852L8.35365 8.80551C8.45623 8.80551 8.54015 8.72392 8.54015 8.61901C8.54015 8.57471 8.52384 8.53275 8.49586 8.49778L5.46749 4.88659L8.50052 1.27306C8.5285 1.24043 8.54249 1.19613 8.54249 1.15184Z" fill="white"/>
</svg>
