<svg width="24" height="24" viewBox="0 0 24 24" fill="none" xmlns="http://www.w3.org/2000/svg">
<rect width="24" height="24" rx="12" fill="#00CB39" fill-opacity="0.2"/>
<path d="M9.3335 6.66671V14.6667C9.3335 15.0203 9.47397 15.3595 9.72402 15.6095C9.97407 15.8596 10.3132 16 10.6668 16H16.0002C16.3538 16 16.6929 15.8596 16.943 15.6095C17.193 15.3595 17.3335 15.0203 17.3335 14.6667V8.82804C17.3335 8.65041 17.298 8.47458 17.229 8.31087C17.1601 8.14716 17.0592 7.99887 16.9322 7.87471L14.7222 5.71337C14.4731 5.46981 14.1385 5.33342 13.7902 5.33337H10.6668C10.3132 5.33337 9.97407 5.47385 9.72402 5.7239C9.47397 5.97395 9.3335 6.31309 9.3335 6.66671V6.66671Z" stroke="#00CB39" stroke-width="2" stroke-linecap="round" stroke-linejoin="round"/>
<path d="M14.6667 16.0001V17.3334C14.6667 17.687 14.5263 18.0262 14.2762 18.2762C14.0262 18.5263 13.687 18.6667 13.3334 18.6667H8.00008C7.64646 18.6667 7.30732 18.5263 7.05727 18.2762C6.80722 18.0262 6.66675 17.687 6.66675 17.3334V10.0001C6.66675 9.64646 6.80722 9.30732 7.05727 9.05727C7.30732 8.80722 7.64646 8.66675 8.00008 8.66675H9.33341" stroke="#00CB39" stroke-width="2" stroke-linecap="round" stroke-linejoin="round"/>
</svg>
