<svg width="24" height="24" viewBox="0 0 24 24" fill="none" xmlns="http://www.w3.org/2000/svg">
<path d="M17.3779 4.43112L17.3775 4.43089L15.6475 3.44089L15.6365 3.43458L15.6365 3.43449C15.2179 3.18543 14.6542 3.32416 14.3865 3.77013L14.2807 3.95293C14.2804 3.95339 14.2801 3.95385 14.2799 3.9543C13.7499 4.8781 12.9462 5.50744 11.9888 5.50744C11.032 5.50744 10.226 4.87885 9.69112 3.95604L9.69093 3.95572L9.58093 3.76572L9.57829 3.76116L9.57831 3.76115C9.33327 3.33097 8.77788 3.182 8.35347 3.43449L8.34256 3.44098L8.34251 3.44089L6.61251 4.43089L6.6121 4.43112C6.06805 4.74201 5.8741 5.44986 6.18979 6.00539C6.72444 6.92378 6.86748 7.93254 6.38943 8.76009C5.91142 9.58758 4.96468 9.96994 3.9 9.96994C3.27164 9.96994 2.75 10.4867 2.75 11.1199V12.8799C2.75 13.5083 3.26678 14.0299 3.9 14.0299C4.96479 14.0299 5.91192 14.4124 6.38982 15.2417C6.86739 16.0704 6.72418 17.0812 6.19022 18.0037C5.87486 18.5577 6.06617 19.2568 6.6121 19.5688L6.61251 19.569L8.34251 20.559L8.35352 20.5653L8.35347 20.5654C8.77208 20.8144 9.33577 20.6757 9.60345 20.2298L9.70933 20.0469C9.70961 20.0464 9.7099 20.0459 9.71019 20.0454C10.2402 19.1217 11.0439 18.4924 12.0012 18.4924C12.958 18.4924 13.764 19.121 14.2989 20.0438L14.2991 20.0442L14.4065 20.2298C14.6742 20.6757 15.2379 20.8144 15.6565 20.5654L15.6674 20.5589L15.6675 20.559L17.3975 19.569L17.3979 19.5688C17.9453 19.256 18.1337 18.5471 17.8206 18.0051L17.3779 4.43112ZM17.3779 4.43112C17.9242 4.7433 18.1154 5.44317 17.7991 5.99734M17.3779 4.43112L17.7991 5.99734M17.7991 5.99734C17.2697 6.92103 17.1307 7.93183 17.6096 8.75934C18.0887 9.58723 19.0347 9.96994 20.1 9.96994C20.7308 9.96994 21.2522 10.49 21.26 11.124L17.7991 5.99734ZM8 11.9999C8 14.2041 9.79579 15.9999 12 15.9999C14.2042 15.9999 16 14.2041 16 11.9999C16 9.79572 14.2042 7.99994 12 7.99994C9.79579 7.99994 8 9.79572 8 11.9999Z" stroke="#93989A" stroke-width="1.5"/>
</svg>
