<svg width="20" height="20" viewBox="0 0 20 20" fill="none" xmlns="http://www.w3.org/2000/svg">
<g clip-path="url(#clip0_151_4261)">
<path d="M19.9999 15.0001C19.9999 15.5894 19.7658 16.1547 19.349 16.5714C18.9323 16.9882 18.3671 17.2223 17.7777 17.2223H13.3333V2.77783H17.7777C18.3671 2.77783 18.9323 3.01196 19.349 3.42871C19.7658 3.84545 19.9999 4.41068 19.9999 5.00005V15.0001Z" fill="#ED2939"/>
<path d="M2.22222 2.77783C1.63285 2.77783 1.06762 3.01196 0.650874 3.42871C0.234126 3.84545 0 4.41068 0 5.00005L0 15.0001C0 15.5894 0.234126 16.1547 0.650874 16.5714C1.06762 16.9882 1.63285 17.2223 2.22222 17.2223H6.66667V2.77783H2.22222Z" fill="#002495"/>
<path d="M6.66675 2.77783H13.3334V17.2223H6.66675V2.77783Z" fill="#EEEEEE"/>
</g>
<defs>
<clipPath id="clip0_151_4261">
<rect width="20" height="20" fill="white"/>
</clipPath>
</defs>
</svg>
